<svg xmlns="http://www.w3.org/2000/svg" xmlns:xlink="http://www.w3.org/1999/xlink" viewBox="0 0 460.25 59.45"><defs><style>.cls-1{fill:#fff;}.cls-2{fill:#231f20;}.cls-3{fill:url(#linear-gradient);}</style><linearGradient id="linear-gradient" x1="418.73" y1="29.69" x2="451.04" y2="29.69" gradientUnits="userSpaceOnUse"><stop offset="0" stop-color="#540002"/><stop offset="0.29" stop-color="#7e0c1c"/><stop offset="0.95" stop-color="#e62c5f"/><stop offset="1" stop-color="#ee2e64"/></linearGradient></defs><g id="Layer_2" data-name="Layer 2"><path class="cls-1" d="M21.58,6.34V58.65H17.49V6.34H0L.8,2.49H38.27L39,6.34ZM44.86,9.55a3,3,0,1,1,3,3A3,3,0,0,1,44.86,9.55ZM46,24.15l3.77-.88V58.65H46ZM60.1,55.44l.72-3.61C64.11,54.48,67.48,56,71,56c4.26,0,7.06-2.64,7.06-6.49,0-3-1.92-5.3-7.14-7L69.65,42c-5.7-1.92-8.34-5.37-8.34-9.87,0-5.37,4.25-9.14,10-9.14a18.26,18.26,0,0,1,9.07,2.65l-.72,3.53a15.5,15.5,0,0,0-8.35-2.81c-3.85,0-6.41,2.32-6.41,5.69,0,2.81,1.52,4.9,6.49,6.58l1.37.4c5.86,1.93,9,5.54,9,10.44,0,5.77-4.34,9.86-10.76,9.86A18.32,18.32,0,0,1,60.1,55.44Zm67.48-14.28a18.15,18.15,0,0,1-18.45,18.21A17.87,17.87,0,0,1,90.83,41V1l3.85-1V31.05a16.81,16.81,0,0,1,14.69-8A17.93,17.93,0,0,1,127.58,41.16Zm-3.85,0a14.53,14.53,0,1,0-29,.08,14.53,14.53,0,1,0,29.05-.08Zm42.53,8.43,1.44,3.53a21.46,21.46,0,0,1-15.08,6.25c-10.59,0-18.38-7.94-18.38-18.13A18.07,18.07,0,0,1,152.54,23c8.42,0,15,5.29,16.37,14l-30.17,9a14.25,14.25,0,0,0,14,9.86C157.83,55.84,162.33,53.68,166.26,49.59ZM138,41.24a7.06,7.06,0,0,0,.09,1.37l26.39-7.87c-1.6-5.05-6.34-8.26-12-8.26A14.52,14.52,0,0,0,138,41.24Zm57.38-18.13V27c-8.35,0-13,4.65-13,13.4V58.65h-3.77V24.15l3.61-.88v7.22C184.64,25.76,189.05,23.11,195.39,23.11Zm13.32,4.09v22c0,4.18,2.16,6.5,5.93,6.5a12.09,12.09,0,0,0,4.66-1v3.61a14.11,14.11,0,0,1-5,1c-5.77,0-9.38-3.69-9.38-9.79V27.2h-5.38l.72-3.45h4.66V15.32l3.77-2.48V23.75H219.3V27.2Z"/><path class="cls-1" d="M244.57,8.51a6.07,6.07,0,0,1,6-6h13.48c10.91,0,18.46,7.94,18.46,17.65S275,37.79,264.07,37.79h-.24a5.62,5.62,0,1,1,0-11.23,6.42,6.42,0,0,0-.16-12.84h-7.06V53.44a6,6,0,0,1-12,0Z"/><path class="cls-1" d="M289,8.51a6.06,6.06,0,0,1,6-6h14.29c10.91,0,18.45,7.94,18.45,17.65,0,7.62-4.41,12.6-8.83,14.36l-.4.16L331,49.59a6,6,0,0,1-4.57,9.86,6,6,0,0,1-4.66-2.16L304.43,36.67A7.13,7.13,0,0,1,302.59,32,5.38,5.38,0,0,1,308,26.56h.88a6.42,6.42,0,1,0,0-12.84H301V53.44a6,6,0,0,1-12,0Z"/><path class="cls-1" d="M427.94,7A6.17,6.17,0,0,1,434,.8h20.62a5.68,5.68,0,0,1,5.64,5.78,5.68,5.68,0,0,1-5.64,5.78H440V23.91h14.58a5.78,5.78,0,0,1,0,11.55H440V47h14.58a5.78,5.78,0,0,1,0,11.55H434a6.16,6.16,0,0,1-6.05-6.19Z"/><path class="cls-1" d="M398.66,3.21A5.79,5.79,0,0,1,403.47.8a6.07,6.07,0,0,1,6,6V26.64L429.15,3.21A5.89,5.89,0,0,1,434,.8a6.07,6.07,0,0,1,6,6V52.55a6,6,0,0,1-12,0V22.14L409.49,44.21v8.34a6,6,0,1,1-12,0V22.23l-28.8,34.34a5.82,5.82,0,0,1-4.33,2A5.58,5.58,0,0,1,358.7,53,5.3,5.3,0,0,1,360,49.34Z"/><circle class="cls-1" cx="345.41" cy="8.1" r="5.62"/><path class="cls-1" d="M349.38,18.61a5.61,5.61,0,0,0-4-1.64h0a5.6,5.6,0,0,0-5.61,5.62V53.84a5.6,5.6,0,0,0,5.61,5.61h0A5.62,5.62,0,0,0,351,53.84V22.59A5.6,5.6,0,0,0,349.38,18.61Z"/><path class="cls-2" d="M21.58,6.34V58.65H17.49V6.34H0L.8,2.49H38.27L39,6.34ZM44.86,9.55a3,3,0,1,1,3,3A3,3,0,0,1,44.86,9.55ZM46,24.15l3.77-.88V58.65H46ZM60.1,55.44l.72-3.61C64.11,54.48,67.48,56,71,56c4.26,0,7.06-2.64,7.06-6.49,0-3-1.92-5.3-7.14-7L69.65,42c-5.7-1.92-8.34-5.37-8.34-9.87,0-5.37,4.25-9.14,10-9.14a18.26,18.26,0,0,1,9.07,2.65l-.72,3.53a15.5,15.5,0,0,0-8.35-2.81c-3.85,0-6.41,2.32-6.41,5.69,0,2.81,1.52,4.9,6.49,6.58l1.37.4c5.86,1.93,9,5.54,9,10.44,0,5.77-4.34,9.86-10.76,9.86A18.32,18.32,0,0,1,60.1,55.44Zm67.48-14.28a18.15,18.15,0,0,1-18.45,18.21A17.87,17.87,0,0,1,90.83,41V1l3.85-1V31.05a16.81,16.81,0,0,1,14.69-8A17.93,17.93,0,0,1,127.58,41.16Zm-3.85,0a14.53,14.53,0,1,0-29,.08,14.53,14.53,0,1,0,29.05-.08Zm42.53,8.43,1.44,3.53a21.46,21.46,0,0,1-15.08,6.25c-10.59,0-18.38-7.94-18.38-18.13A18.07,18.07,0,0,1,152.54,23c8.42,0,15,5.29,16.37,14l-30.17,9a14.25,14.25,0,0,0,14,9.86C157.83,55.84,162.33,53.68,166.26,49.59ZM138,41.24a7.06,7.06,0,0,0,.09,1.37l26.39-7.87c-1.6-5.05-6.34-8.26-12-8.26A14.52,14.52,0,0,0,138,41.24Zm57.38-18.13V27c-8.35,0-13,4.65-13,13.4V58.65h-3.77V24.15l3.61-.88v7.22C184.64,25.76,189.05,23.11,195.39,23.11Zm13.32,4.09v22c0,4.18,2.16,6.5,5.93,6.5a12.09,12.09,0,0,0,4.66-1v3.61a14.11,14.11,0,0,1-5,1c-5.77,0-9.38-3.69-9.38-9.79V27.2h-5.38l.72-3.45h4.66V15.32l3.77-2.48V23.75H219.3V27.2Z"/><path class="cls-2" d="M244.57,8.51a6.07,6.07,0,0,1,6-6h13.48c10.91,0,18.46,7.94,18.46,17.65S275,37.79,264.07,37.79h-.24a5.62,5.62,0,1,1,0-11.23,6.42,6.42,0,0,0-.16-12.84h-7.06V53.44a6,6,0,0,1-12,0Z"/><path class="cls-2" d="M289,8.51a6.06,6.06,0,0,1,6-6h14.29c10.91,0,18.45,7.94,18.45,17.65,0,7.62-4.41,12.6-8.83,14.36l-.4.16L331,49.59a6,6,0,0,1-4.57,9.86,6,6,0,0,1-4.66-2.16L304.43,36.67A7.13,7.13,0,0,1,302.59,32,5.38,5.38,0,0,1,308,26.56h.88a6.42,6.42,0,1,0,0-12.84H301V53.44a6,6,0,0,1-12,0Z"/><path class="cls-3" d="M427.94,7A6.17,6.17,0,0,1,434,.8h20.62a5.68,5.68,0,0,1,5.64,5.78,5.68,5.68,0,0,1-5.64,5.78H440V23.91h14.58a5.78,5.78,0,0,1,0,11.55H440V47h14.58a5.78,5.78,0,0,1,0,11.55H434a6.16,6.16,0,0,1-6.05-6.19Z"/><path class="cls-2" d="M398.66,3.21A5.79,5.79,0,0,1,403.47.8a6.07,6.07,0,0,1,6,6V26.64L429.15,3.21A5.89,5.89,0,0,1,434,.8a6.07,6.07,0,0,1,6,6V52.55a6,6,0,0,1-12,0V22.14L409.49,44.21v8.34a6,6,0,1,1-12,0V22.23l-28.8,34.34a5.82,5.82,0,0,1-4.33,2A5.58,5.58,0,0,1,358.7,53,5.3,5.3,0,0,1,360,49.34Z"/><circle class="cls-2" cx="345.41" cy="8.1" r="5.62"/><path class="cls-2" d="M349.38,18.61a5.61,5.61,0,0,0-4-1.64h0a5.6,5.6,0,0,0-5.61,5.62V53.84a5.6,5.6,0,0,0,5.61,5.61h0A5.62,5.62,0,0,0,351,53.84V22.59A5.6,5.6,0,0,0,349.38,18.61Z"/></g></svg>